<?xml version="1.0" encoding="utf-8"?>
<!-- Generator: Adobe Illustrator 16.0.0, SVG Export Plug-In . SVG Version: 6.00 Build 0)  -->
<!DOCTYPE svg PUBLIC "-//W3C//DTD SVG 1.1//EN" "http://www.w3.org/Graphics/SVG/1.1/DTD/svg11.dtd">
<svg version="1.1" id="레이어_1" xmlns="http://www.w3.org/2000/svg" xmlns:xlink="http://www.w3.org/1999/xlink" x="0px"
	 y="0px" width="104.436px" height="14.047px" viewBox="0 0 104.436 14.047" enable-background="new 0 0 104.436 14.047"
	 xml:space="preserve">
<g>
	<path fill="#FFFFFF" d="M0.923,9.358c0.373,0.243,0.748,0.422,1.125,0.54c0.377,0.117,0.708,0.175,0.995,0.175
		c0.442,0,0.809-0.076,1.1-0.229c0.29-0.15,0.436-0.395,0.436-0.733c0-0.19-0.141-0.394-0.423-0.61S3.397,8.032,2.73,7.747
		C2.158,7.495,1.723,7.219,1.423,6.921C1.125,6.622,0.975,6.242,0.975,5.783c0-0.554,0.198-0.983,0.598-1.287
		c0.398-0.304,0.966-0.455,1.703-0.455c0.33,0,0.663,0.037,1.001,0.11c0.338,0.074,0.659,0.193,0.962,0.357V5.47H5.083
		C4.97,5.393,4.838,5.322,4.687,5.257C4.535,5.192,4.375,5.135,4.206,5.088C4.037,5.04,3.868,5.003,3.699,4.977
		c-0.17-0.026-0.328-0.039-0.475-0.039c-0.338,0-0.609,0.067-0.813,0.201C2.208,5.274,2.106,5.471,2.106,5.731
		c0,0.147,0.033,0.277,0.098,0.39c0.065,0.112,0.169,0.221,0.313,0.325C2.659,6.55,2.843,6.654,3.068,6.758s0.494,0.221,0.806,0.351
		C4.099,7.204,4.325,7.311,4.55,7.427c0.227,0.117,0.428,0.253,0.604,0.41c0.178,0.156,0.321,0.338,0.429,0.547
		C5.691,8.59,5.746,8.829,5.746,9.098c0,0.347-0.074,0.643-0.221,0.884c-0.147,0.242-0.342,0.44-0.585,0.591
		c-0.243,0.152-0.526,0.262-0.853,0.332c-0.324,0.069-0.66,0.104-1.007,0.104c-0.398,0-0.78-0.039-1.144-0.116
		c-0.364-0.078-0.754-0.238-1.17-0.481V9.358H0.923z"/>
	<path fill="#FFFFFF" d="M9.75,11.008c-0.52,0-0.951-0.09-1.293-0.272c-0.342-0.182-0.616-0.429-0.818-0.741
		C7.434,9.683,7.293,9.317,7.215,8.897C7.137,8.477,7.098,8.024,7.098,7.54c0-0.485,0.041-0.939,0.124-1.36
		C7.304,5.76,7.447,5.393,7.65,5.081S8.125,4.522,8.463,4.34C8.801,4.158,9.23,4.067,9.75,4.067c0.502,0,0.925,0.091,1.269,0.273
		c0.342,0.182,0.614,0.429,0.818,0.741s0.35,0.68,0.437,1.105c0.086,0.424,0.13,0.875,0.13,1.352c0,0.478-0.041,0.926-0.124,1.346
		s-0.225,0.789-0.429,1.104c-0.204,0.316-0.476,0.565-0.813,0.748S10.27,11.008,9.75,11.008z M9.75,10.125
		c0.563,0,0.964-0.229,1.203-0.684c0.238-0.455,0.357-1.09,0.357-1.904c0-0.832-0.119-1.474-0.357-1.923
		c-0.239-0.451-0.639-0.676-1.203-0.676c-0.571,0-0.975,0.223-1.209,0.669C8.307,6.053,8.19,6.698,8.19,7.538
		c0,0.814,0.117,1.449,0.351,1.904C8.775,9.897,9.178,10.125,9.75,10.125z"/>
	<path fill="#FFFFFF" d="M13.806,4.21h1.078v4.003c0,0.703,0.088,1.193,0.261,1.47c0.173,0.278,0.484,0.416,0.936,0.416
		c0.208,0,0.405-0.054,0.591-0.162c0.187-0.108,0.348-0.258,0.481-0.449c0.134-0.19,0.241-0.42,0.319-0.688
		c0.077-0.27,0.116-0.563,0.116-0.885V4.21h1.079v6.63h-1.001l-0.052-0.885c-0.147,0.277-0.379,0.517-0.696,0.715
		c-0.316,0.199-0.669,0.299-1.06,0.299c-0.425,0-0.77-0.068-1.033-0.207c-0.265-0.139-0.473-0.332-0.624-0.578
		c-0.152-0.247-0.256-0.54-0.312-0.878c-0.058-0.339-0.084-0.71-0.084-1.118V4.21z"/>
	<path fill="#FFFFFF" d="M23.322,1.61V9.67c0,0.095,0.02,0.164,0.059,0.207s0.114,0.065,0.229,0.065h1.649v0.897h-2.002
		c-0.338,0-0.594-0.104-0.767-0.313c-0.174-0.208-0.26-0.451-0.26-0.729V2.507H20.8V1.61H23.322z"/>
	<path fill="#FFFFFF" d="M31.59,11.347v0.976c-0.241,0.121-0.5,0.205-0.772,0.252c-0.272,0.049-0.514,0.072-0.722,0.072
		c-1.291,0-2.259-0.398-2.898-1.195c-0.642-0.798-0.962-2.02-0.962-3.666c0-0.754,0.071-1.441,0.214-2.062
		c0.144-0.619,0.357-1.148,0.644-1.586s0.65-0.778,1.093-1.021c0.441-0.242,0.963-0.364,1.561-0.364
		c0.763,0,1.349,0.228,1.755,0.683c0.407,0.455,0.611,1.142,0.611,2.061v4.914H31.15l-0.039-0.598
		c-0.104,0.208-0.25,0.381-0.437,0.52c-0.187,0.14-0.389,0.209-0.604,0.209c-0.347,0-0.644-0.069-0.891-0.209
		c-0.247-0.139-0.451-0.33-0.611-0.572c-0.16-0.241-0.277-0.532-0.352-0.87c-0.073-0.339-0.109-0.71-0.109-1.118
		c0-0.867,0.171-1.542,0.513-2.028c0.343-0.485,0.826-0.728,1.45-0.728c0.433,0,0.775,0.152,1.026,0.455
		c-0.01-0.632-0.137-1.096-0.384-1.391s-0.579-0.442-0.994-0.442c-0.441,0-0.818,0.104-1.132,0.312
		c-0.312,0.208-0.564,0.497-0.761,0.865c-0.194,0.368-0.336,0.806-0.422,1.313c-0.087,0.507-0.13,1.06-0.13,1.658
		c0,1.299,0.225,2.285,0.676,2.957c0.45,0.672,1.148,1.008,2.093,1.008c0.183,0,0.411-0.037,0.689-0.11
		c0.275-0.074,0.511-0.171,0.701-0.292L31.59,11.347L31.59,11.347z M31.096,7.772c0-0.719-0.082-1.213-0.247-1.482
		c-0.164-0.269-0.396-0.403-0.688-0.403c-0.304,0-0.544,0.135-0.722,0.403s-0.268,0.763-0.268,1.482c0,0.719,0.09,1.215,0.268,1.488
		s0.418,0.41,0.722,0.41c0.294,0,0.524-0.137,0.688-0.41C31.014,8.988,31.096,8.491,31.096,7.772z"/>
	<path fill="#FFFFFF" d="M38.194,10.84h-1.079V6.836c0-0.702-0.087-1.191-0.26-1.469c-0.174-0.277-0.486-0.416-0.938-0.416
		c-0.208,0-0.404,0.054-0.592,0.163c-0.187,0.109-0.347,0.258-0.479,0.449c-0.136,0.19-0.24,0.42-0.318,0.689
		s-0.117,0.563-0.117,0.884v3.705h-1.079V4.21h1.001l0.053,0.884c0.146-0.277,0.379-0.516,0.694-0.715
		C35.396,4.18,35.75,4.08,36.14,4.08c0.425,0,0.77,0.069,1.033,0.208c0.265,0.139,0.473,0.331,0.624,0.578
		c0.151,0.247,0.256,0.54,0.313,0.877c0.057,0.338,0.085,0.711,0.085,1.118L38.194,10.84L38.194,10.84z"/>
	<path fill="#FFFFFF" d="M42.393,4.067c0.425,0,0.796,0.074,1.111,0.221s0.573,0.353,0.773,0.617
		c0.199,0.265,0.349,0.579,0.448,0.942c0.1,0.364,0.148,0.759,0.148,1.183v0.48H40.69v0.066c0,0.346,0.03,0.67,0.091,0.969
		s0.162,0.561,0.306,0.787c0.144,0.225,0.331,0.402,0.565,0.533c0.232,0.129,0.528,0.194,0.884,0.194
		c0.32,0,0.647-0.054,0.981-0.163c0.333-0.107,0.646-0.275,0.941-0.5h0.156v1.027c-0.295,0.199-0.604,0.347-0.93,0.441
		c-0.325,0.096-0.723,0.143-1.189,0.143c-0.521,0-0.967-0.084-1.339-0.252c-0.373-0.17-0.679-0.41-0.917-0.723
		c-0.238-0.312-0.414-0.682-0.526-1.111C39.602,8.495,39.545,8.02,39.545,7.5c0-0.529,0.058-1.005,0.169-1.43
		C39.826,5.646,40,5.286,40.235,4.991c0.232-0.294,0.528-0.522,0.884-0.683C41.475,4.147,41.899,4.067,42.393,4.067z M40.703,6.68
		h3.042V6.641c-0.061-1.135-0.523-1.703-1.392-1.703c-0.928,0-1.479,0.576-1.65,1.729V6.68z"/>
	<path fill="#FFFFFF" d="M46.306,4.21h1.078v4.003c0,0.703,0.088,1.193,0.261,1.47c0.174,0.278,0.484,0.416,0.937,0.416
		c0.208,0,0.405-0.054,0.592-0.162s0.347-0.258,0.48-0.449c0.135-0.19,0.24-0.42,0.318-0.688c0.077-0.27,0.116-0.563,0.116-0.885
		V4.21h1.079v6.63h-1.001l-0.052-0.885c-0.147,0.277-0.38,0.517-0.695,0.715c-0.315,0.199-0.67,0.299-1.06,0.299
		c-0.425,0-0.771-0.068-1.034-0.207s-0.472-0.332-0.624-0.578c-0.151-0.247-0.256-0.54-0.312-0.878
		c-0.058-0.339-0.085-0.71-0.085-1.118L46.306,4.21L46.306,4.21z"/>
	<path fill="#FFFFFF" d="M54.327,4.21l0.078,1.313c0.052-0.156,0.136-0.321,0.253-0.494c0.117-0.173,0.265-0.332,0.442-0.475
		c0.177-0.143,0.381-0.26,0.61-0.351c0.229-0.091,0.482-0.136,0.761-0.136c0.285,0,0.569,0.035,0.852,0.104
		c0.282,0.069,0.535,0.178,0.761,0.325v1.066h-0.155c-0.199-0.13-0.438-0.241-0.716-0.332c-0.276-0.091-0.555-0.137-0.832-0.137
		c-0.312,0-0.587,0.067-0.824,0.202c-0.238,0.135-0.442,0.316-0.611,0.546s-0.297,0.492-0.384,0.787
		c-0.086,0.294-0.13,0.603-0.13,0.923v3.289h-1.093V4.21H54.327z"/>
	<path fill="#FFFFFF" d="M61.75,11.008c-0.52,0-0.951-0.09-1.294-0.272c-0.342-0.182-0.615-0.429-0.817-0.741
		c-0.204-0.312-0.346-0.678-0.424-1.098c-0.077-0.42-0.116-0.873-0.116-1.357c0-0.485,0.041-0.938,0.124-1.359
		c0.082-0.42,0.225-0.786,0.429-1.098s0.475-0.559,0.813-0.741c0.339-0.182,0.769-0.273,1.287-0.273
		c0.503,0,0.925,0.091,1.269,0.273c0.342,0.182,0.614,0.429,0.818,0.741c0.203,0.312,0.35,0.68,0.437,1.105
		c0.086,0.424,0.13,0.875,0.13,1.353c0,0.477-0.042,0.924-0.124,1.344c-0.082,0.421-0.226,0.789-0.429,1.105
		c-0.204,0.316-0.476,0.565-0.813,0.748C62.7,10.92,62.27,11.008,61.75,11.008z M61.75,10.125c0.563,0,0.964-0.229,1.202-0.684
		s0.357-1.09,0.357-1.904c0-0.832-0.119-1.474-0.357-1.923c-0.238-0.45-0.639-0.676-1.202-0.676c-0.571,0-0.975,0.223-1.209,0.669
		c-0.233,0.446-0.351,1.09-0.351,1.931c0,0.814,0.116,1.449,0.351,1.904C60.776,9.897,61.178,10.125,61.75,10.125z"/>
	<path fill="#FFFFFF" d="M68.822,1.61V9.67c0,0.095,0.02,0.164,0.059,0.207s0.114,0.065,0.229,0.065h1.649v0.897h-2.002
		c-0.338,0-0.594-0.104-0.767-0.313c-0.174-0.208-0.26-0.451-0.26-0.729V2.507H66.3V1.61H68.822z"/>
	<path fill="#FFFFFF" d="M75.426,4.21v5.733h1.872v0.897h-4.966V9.943h1.989V5.107h-1.534V4.21H75.426z M73.918,1.987
		c0-0.243,0.087-0.451,0.261-0.624c0.174-0.173,0.377-0.26,0.61-0.26c0.234,0,0.438,0.086,0.611,0.26
		c0.173,0.173,0.26,0.381,0.26,0.624c0,0.243-0.087,0.451-0.26,0.624c-0.174,0.173-0.377,0.26-0.611,0.26
		c-0.233,0-0.438-0.087-0.61-0.26C74.005,2.438,73.918,2.23,73.918,1.987z"/>
	<path fill="#FFFFFF" d="M83.694,10.84h-1.079V6.836c0-0.702-0.087-1.191-0.26-1.469c-0.174-0.277-0.486-0.416-0.938-0.416
		c-0.208,0-0.404,0.054-0.592,0.163c-0.187,0.109-0.347,0.258-0.479,0.449c-0.136,0.19-0.24,0.42-0.318,0.689
		s-0.117,0.563-0.117,0.884v3.705h-1.079V4.21h1.001l0.052,0.884c0.147-0.277,0.38-0.516,0.695-0.715
		C80.896,4.18,81.25,4.08,81.64,4.08c0.425,0,0.77,0.069,1.033,0.208c0.265,0.139,0.473,0.331,0.624,0.578
		c0.151,0.247,0.256,0.54,0.313,0.877c0.057,0.338,0.085,0.711,0.085,1.118L83.694,10.84L83.694,10.84z"/>
	<path fill="#FFFFFF" d="M86.671,9.644c0-0.276,0.101-0.517,0.3-0.715c0.198-0.199,0.438-0.3,0.715-0.3
		c0.276,0,0.515,0.101,0.715,0.3c0.199,0.2,0.299,0.438,0.299,0.715s-0.1,0.517-0.299,0.715c-0.2,0.199-0.438,0.3-0.716,0.3
		c-0.278,0-0.517-0.101-0.715-0.3C86.77,10.161,86.671,9.922,86.671,9.644z"/>
	<path fill="#FFFFFF" d="M94.64,6.901l2.848,3.939h-1.365l-2.21-3.237l-0.871,0.91v2.327h-1.079V1.61h1.079v5.538l2.717-2.938h1.354
		L94.64,6.901z"/>
	<path fill="#FFFFFF" d="M99.827,4.21l0.078,1.313c0.052-0.156,0.136-0.321,0.253-0.494c0.117-0.173,0.265-0.332,0.442-0.475
		c0.177-0.143,0.381-0.26,0.61-0.351c0.229-0.091,0.482-0.136,0.761-0.136c0.285,0,0.569,0.035,0.852,0.104
		c0.282,0.069,0.535,0.178,0.761,0.325v1.066h-0.155c-0.199-0.13-0.438-0.241-0.716-0.332c-0.276-0.091-0.555-0.137-0.832-0.137
		c-0.312,0-0.587,0.067-0.824,0.202c-0.238,0.135-0.442,0.316-0.611,0.546s-0.297,0.492-0.384,0.787
		c-0.086,0.294-0.13,0.603-0.13,0.923v3.289h-1.093V4.21H99.827z"/>
</g>
</svg>
